<svg width="220" height="74" viewBox="0 0 220 74" fill="none" xmlns="http://www.w3.org/2000/svg">
<path d="M20.2812 73L0.59375 22.0469H5.375L18.5469 56.6875C20.2969 61.125 21.6094 65 22.4844 68.3125H22.7656C24.0469 64.0625 25.3594 60.1562 26.7031 56.5938L39.875 22.0469H44.6562L24.9688 73H20.2812ZM67.4281 73H62.7875V22.0469H67.4281V73ZM62.1313 7.89062C62.1313 4.89062 63.1156 3.39062 65.0844 3.39062C66.0531 3.39062 66.8031 3.78125 67.3344 4.5625C67.8969 5.34375 68.1781 6.45312 68.1781 7.89062C68.1781 9.29688 67.8969 10.4062 67.3344 11.2188C66.8031 12.0312 66.0531 12.4375 65.0844 12.4375C63.1156 12.4375 62.1313 10.9219 62.1313 7.89062ZM105.294 73L85.6063 22.0469H90.3875L103.559 56.6875C105.309 61.125 106.622 65 107.497 68.3125H107.778C109.059 64.0625 110.372 60.1562 111.716 56.5938L124.888 22.0469H129.669L109.981 73H105.294ZM152.441 73H147.8V22.0469H152.441V73ZM147.144 7.89062C147.144 4.89062 148.128 3.39062 150.097 3.39062C151.066 3.39062 151.816 3.78125 152.347 4.5625C152.909 5.34375 153.191 6.45312 153.191 7.89062C153.191 9.29688 152.909 10.4062 152.347 11.2188C151.816 12.0312 151.066 12.4375 150.097 12.4375C148.128 12.4375 147.144 10.9219 147.144 7.89062ZM197.806 21.0625C201.494 21.0625 204.681 21.7344 207.369 23.0781C210.056 24.4219 212.462 26.7188 214.587 29.9688H214.869C214.681 26.0312 214.587 22.1719 214.587 18.3906V0.0625H219.181V73H216.134L214.962 65.2188H214.587C210.712 71.0312 205.15 73.9375 197.9 73.9375C190.869 73.9375 185.494 71.75 181.775 67.375C178.056 63 176.197 56.625 176.197 48.25C176.197 39.4375 178.041 32.7031 181.728 28.0469C185.416 23.3906 190.775 21.0625 197.806 21.0625ZM197.806 25.2812C192.244 25.2812 188.056 27.2344 185.244 31.1406C182.462 35.0469 181.072 40.7188 181.072 48.1562C181.072 62.5938 186.681 69.8125 197.9 69.8125C203.65 69.8125 207.869 68.1406 210.556 64.7969C213.244 61.4531 214.587 55.9375 214.587 48.25V47.4531C214.587 39.5781 213.259 33.9219 210.603 30.4844C207.978 27.0156 203.712 25.2812 197.806 25.2812Z" fill="#6E5765"/>
</svg>
